# xmcd
#
# Track frame offsets:
#	150
#	16174
#	28708
#	40228
#	52416
#	63330
#	72148
#	84771
#	105030
#	116109
#	128373
#	141258
#	152278
#	164317
#	175286
#	185411
#	197305
#
# Disc length: 2819 seconds
#
# Revision: 0
# Processed by: cddbd v1.5.2PL0 Copyright (c) Steve Scherf et al.
# Submitted via: EasyCDDAExtractor 16.0.1.1
#
DISCID=d00b0111
DTITLE=Linda Gail Lewis and The Firebirds - Rock'n' Roll Special
DYEAR=2001
DGENRE=Rock and Roll
TTITLE0=Whole Lotta Shakin
TTITLE1=Ready To Fall In Love
TTITLE2=Mais Oui
TTITLE3=I'm On Fire
TTITLE4=Saturday Night At The Duck Pond
TTITLE5=The End Of The Road
TTITLE6=I Gotta Feeling
TTITLE7=Will You Still Love Me Tomorrow
TTITLE8=Late Last Night
TTITLE9=Whirlwind
TTITLE10=Ain't Got No Home
TTITLE11=Lets Have A Party
TTITLE12=Honky Tonk Man
TTITLE13=Rip It Up
TTITLE14=Gee Wiz
TTITLE15=Great Balls Of Fire
TTITLE16=What I'd Say
EXTD=
EXTT0=
EXTT1=
EXTT2=
EXTT3=
EXTT4=
EXTT5=
EXTT6=
EXTT7=
EXTT8=
EXTT9=
EXTT10=
EXTT11=
EXTT12=
EXTT13=
EXTT14=
EXTT15=
EXTT16=
PLAYORDER=
